<svg width="1440" height="1024" viewBox="0 0 1440 1024" fill="none" xmlns="http://www.w3.org/2000/svg">
<g clip-path="url(#clip0)">
<rect width="1440" height="1024" fill="black"/>
<path d="M695 379.041L474 512L695 644.96V570.96L597 512L695 453.041V379.041Z" fill="white"/>
<path d="M745 570.96L843 512L745 453.041V379.041L966 512L745 644.96V570.96Z" fill="white"/>
<path d="M505 345V419L720 289.5V216L505 345Z" fill="#F50049"/>
<path d="M935 679V605L720 734.5V808L935 679Z" fill="#26ABFF"/>
<path d="M2966.96 -1988L3220 -1836.19V-1762L2843.33 -1988H2966.96Z" fill="#F50049"/>
<path d="M-1780 -1836.19L-1526.96 -1988H-1403.33L-1780 -1762V-1836.19Z" fill="#F50049"/>
<path d="M-1780 -1466V-1540.19L-1033.56 -1988H-910L-1780 -1466Z" fill="#F50049"/>
<path d="M-1780 -1170V-1244.19L-540.163 -1988H-416.667L-1780 -1170Z" fill="#F50049"/>
<path d="M-1780 2120.19V2046L-170 3012H-293.464L-1780 2120.19Z" fill="#F50049"/>
<path d="M-1780 2416.19V2342L-663.333 3012H-786.862L-1780 2416.19Z" fill="#F50049"/>
<path d="M-1780 2712.19V2638L-1156.67 3012H-1280.26L-1780 2712.19Z" fill="#F50049"/>
<path d="M-1780 3008.19V2934L-1650 3012H-1773.66L-1780 3008.19Z" fill="#F50049"/>
<path d="M3220 3008.19L3213.66 3012H3090L3220 2934V3008.19Z" fill="#F50049"/>
<path d="M3220 2638V2712.19L2720.26 3012H2596.67L3220 2638Z" fill="#F50049"/>
<path d="M3220 2342V2416.19L2226.86 3012H2103.33L3220 2342Z" fill="#F50049"/>
<path d="M3220 2046V2120.19L1733.46 3012H1610L3220 2046Z" fill="#F50049"/>
<path d="M3220 -948.194V-874L1363.33 -1988H1486.77L3220 -948.194Z" fill="#F50049"/>
<path d="M3220 -1244.19V-1170L1856.67 -1988H1980.16L3220 -1244.19Z" fill="#F50049"/>
<path d="M3220 -1540.19V-1466L2350 -1988H2473.56L3220 -1540.19Z" fill="#F50049"/>
<path d="M-46.7703 -1988L-1747 -968L-1685 -931L76.6666 -1988H-46.7703Z" fill="#F50049"/>
<path d="M446.667 -1988L-1500 -820L-1438 -783L570.023 -1988H446.667Z" fill="#F50049"/>
<path d="M869.989 -1988L3001.5 -709L3063.5 -746L993.353 -1988H869.989Z" fill="#F50049"/>
<path d="M1240.04 3012L3063.5 1918L3065 -746L3003 -709L3001.5 1881L1116.64 3012H1240.04Z" fill="#F50049"/>
<path d="M746.671 3012H693.327L-1500.5 1696L-1499.5 1695.4L-1501 -820L-1439 -783L-1437.5 1658.5L-1438.42 1659.05L720 2954L2755 1733L2756 -561L2818 -598L2817 1770L746.671 3012Z" fill="#F50049"/>
<path d="M323.333 3012H199.93L-1747 1844L-1746.5 1843.7L-1748 -968L-1686 -931L-1684.5 1807L-1684.75 1807.15L323.333 3012Z" fill="#F50049"/>
<path d="M2817 -598L2755 -561L720 -1782L-1191.5 -635L-1253.5 -672L720 -1856L2817 -598Z" fill="#F50049"/>
<path d="M2508.5 -413L2570.5 -450L720 -1560L-1007 -524L-1006.5 1399.7L-1007 1400L720 2436L2323.5 1474L2261.5 1437L720 2362L-944.751 1363.15L-944.501 1363L-945 -487L720 -1486L2508.5 -413Z" fill="#F50049"/>
<path d="M2323.5 -302L2261.5 -265L720 -1190L-698 -339L-697 1215L-697.752 1215.45L720 2066L2015 1289V-117L720 -894L-451.251 -191.15L-451 -191V1067L-451.251 1067.15L720 1770L1768.33 1141L1768.5 31L720 -598L-204.746 -43.1467L-204.5 -43V919L-204.751 919.15L720 1474L1521.5 993V179L720 -302L42 105L42.5 771L41.9987 771.299L720 1178L1275 845V327L720 -6L288.749 252.85L289 253V623L288.749 623.15L720 882L1028 697L1028.5 475L720 290V289.5V290.298V216.298V216L1090.5 438L1090 734L720 956L226.5 660L227 659.702V216.298L226.5 216L720 -80L1337 290V882L720 1252L-20.5 808L-19.5004 807.404L-20 68L720 -376L1583.5 142V1030L720 1548L-267 956L-266.5 955.702V-79.7074L-266.99 -80L720 -672L1830.5 -6L1830.33 1178L720 1844L-513.5 1104L-513 1103.7V-227.702L-513.5 -228L720 -968L2077 -154V1326L720 2140L-760.5 1252L-759.001 1251.11L-760 -376L720 -1264L2323.5 -302Z" fill="#F50049"/>
<path d="M-1253 1547.7L-1253.5 1548L720 2732L2570 1622L2571 -450L2509 -413L2508 1585L720 2658L-1191.25 1511.15L-1191 1511L-1192 -635L-1254 -672L-1253 1547.7Z" fill="#F50049"/>
<path d="M2262 -265V1437L2324 1474V-302L2262 -265Z" fill="#F50049"/>
<path d="M3220 -1910V-1984.19L3213.66 -1988H3090L3220 -1910Z" fill="#26ABFF"/>
<path d="M-1650 -1988H-1773.66L-1780 -1984.19V-1910L-1650 -1988Z" fill="#26ABFF"/>
<path d="M-1780 -1688.19L-1280.26 -1988H-1156.67L-1780 -1614V-1688.19Z" fill="#26ABFF"/>
<path d="M-1780 -1318V-1392.19L-786.862 -1988H-663.333L-1780 -1318Z" fill="#26ABFF"/>
<path d="M-1780 -1022V-1096.19L-293.464 -1988H-170L-1780 -1022Z" fill="#26ABFF"/>
<path d="M-1780 1972.19V1898L76.6666 3012H-46.766L-1780 1972.19Z" fill="#26ABFF"/>
<path d="M-1780 2268.19V2194L-416.667 3012H-540.163L-1780 2268.19Z" fill="#26ABFF"/>
<path d="M-1780 2564.19V2490L-910 3012H-1033.56L-1780 2564.19Z" fill="#26ABFF"/>
<path d="M-1780 2860.19V2786L-1403.33 3012H-1526.96L-1780 2860.19Z" fill="#26ABFF"/>
<path d="M3220 2860.19L2966.96 3012H2843.33L3220 2786V2860.19Z" fill="#26ABFF"/>
<path d="M3220 2490V2564.19L2473.56 3012H2350L3220 2490Z" fill="#26ABFF"/>
<path d="M3220 2194V2268.19L1980.16 3012H1856.67L3220 2194Z" fill="#26ABFF"/>
<path d="M3220 -1096.19V-1022L1610 -1988H1733.46L3220 -1096.19Z" fill="#26ABFF"/>
<path d="M3220 -1392.19V-1318L2103.33 -1988H2226.86L3220 -1392.19Z" fill="#26ABFF"/>
<path d="M3220 -1688.19V-1614L2596.67 -1988H2720.26L3220 -1688.19Z" fill="#26ABFF"/>
<path d="M199.963 -1988L-1623.5 -894L-1561.5 -857L323.362 -1988H199.963Z" fill="#26ABFF"/>
<path d="M1116.67 -1988H1240.07L3187 -820L3125 -783L1116.67 -1988Z" fill="#26ABFF"/>
<path d="M693.329 -1988H746.673L2940.5 -672L2878.5 -635L720 -1930L-1315 -709L-1377 -746L693.329 -1988Z" fill="#26ABFF"/>
<path d="M1486.77 3012L3187 1992L3188.5 -820L3126.5 -783L3125 1955L1363.33 3012H1486.77Z" fill="#26ABFF"/>
<path d="M993.333 3012L2940 1844L2878 1807L869.977 3012H993.333Z" fill="#26ABFF"/>
<path d="M570.011 3012L-1561.25 1733.15L-1561 1733L-1562.5 -857L-1624.5 -894L-1623 1769.7L-1623.5 1770L446.647 3012H570.011Z" fill="#26ABFF"/>
<path d="M2693.5 -524L2631.5 -487L720 -1634L-1068 -561L-1130 -598L720 -1708L2693.5 -524Z" fill="#26ABFF"/>
<path d="M2385 -339L2447 -376L720 -1412L-883.5 -450V1326L720 2288L2200 1400L2199.5 1399.7L2200.5 -228L720 -1116L-637 -302L-636.5 -301.702V1177.7L-637 1178L720 1992L1953.5 1252V-80L720 -820L-390.33 -154L-390 -153.803L-389.83 1029.6L-390.5 1030L720 1696L1706.99 1104L1644.99 1067L720 1622L-328.166 993.2L-327.83 993L-328 -117L-328.166 -117.099L720 -746L1891.5 -43V1215L720 1918L-574.751 1141.15L-574.5 1141V-265L-574.751 -265.15L720 -1042L2138.5 -191L2137.5 1363L2137.75 1363.15L720 2214L-821.5 1289V-413L720 -1338L2385 -339Z" fill="#26ABFF"/>
<path d="M720 -524L1707 68V1104L1645 1067V105L720 -450L-81.2507 30.8503L-81 31V845L-81.2507 845.15L720 1326L1398 919L1398.5 253L720 -154L165.249 178.85L165.5 179V697L165.249 697.15L720 1030L1151.5 771V401L720 142L412 327L412.5 549L411.999 549.299L720 734V808L349.5 586L350.499 585.404L350 290L720 68L1213.5 364V808L720 1104L103 734L103.5 733.702V142.298L103 142L720 -228L1460.5 216L1460 956L720 1400L-143.5 882L-143 881.702V-5.70166L-143.5 -6L720 -524Z" fill="#26ABFF"/>
<path d="M-1068 1437.3L-1067.5 1437L-1068.5 -561L-1130.5 -598L-1129.5 1473.4L-1130.5 1474L720 2584L2447 1548L2447.5 -376L2385.5 -339L2385 1511L720 2510L-1068 1437.3Z" fill="#26ABFF"/>
<path d="M-1314.5 1585L-1314.75 1585.15L720 2806L2631.5 1659L2632.5 -487L2694.5 -524L2693.5 1696L720 2880L-1377 1622L-1376.5 1621.7L-1377.5 -746L-1315.5 -709L-1314.5 1585Z" fill="#26ABFF"/>
<path d="M2879.5 -635L2878 1806.5L2940 1843.5L2941.5 -672L2879.5 -635Z" fill="#26ABFF"/>
</g>
<defs>
<clipPath id="clip0">
<rect width="1440" height="1024" fill="white"/>
</clipPath>
</defs>
</svg>
