<svg width="1440" height="1024" viewBox="0 0 1440 1024" fill="none" xmlns="http://www.w3.org/2000/svg">
<g clip-path="url(#clip0)">
<rect width="1440" height="1024" fill="black"/>
<path d="M709.335 473.894L645.997 512L709.335 550.106V528.898L681.248 512L709.335 495.102V473.894Z" fill="white"/>
<path d="M723.665 528.898L751.752 512L723.665 495.102V473.894L787.004 512L723.665 550.106V528.898Z" fill="white"/>
<path d="M654.881 464.138V485.346L716.5 448.231V427.166L654.881 464.138Z" fill="#F50049"/>
<path d="M778.119 559.862V538.654L716.5 575.769V596.834L778.119 559.862Z" fill="#26ABFF"/>
<path d="M1360.48 -204.5L1433 -160.992V-139.728L1325.05 -204.5H1360.48Z" fill="#F50049"/>
<path d="M0 -160.992L72.522 -204.5H107.953L0 -139.728V-160.992Z" fill="#F50049"/>
<path d="M0 -54.8948V-76.1588L213.93 -204.5H249.342L0 -54.8948Z" fill="#F50049"/>
<path d="M0 29.9388V8.67479L355.337 -204.5H390.731L0 29.9388Z" fill="#F50049"/>
<path d="M0 972.908V951.644L461.426 1228.5H426.041L0 972.908Z" fill="#F50049"/>
<path d="M0 1057.74V1036.48L320.037 1228.5H284.633L0 1057.74Z" fill="#F50049"/>
<path d="M0 1142.58V1121.31L178.647 1228.5H143.226L0 1142.58Z" fill="#F50049"/>
<path d="M0 1227.41V1206.15L37.258 1228.5H1.81822L0 1227.41Z" fill="#F50049"/>
<path d="M1433 1227.41L1431.18 1228.5H1395.74L1433 1206.15V1227.41Z" fill="#F50049"/>
<path d="M1433 1121.31V1142.58L1289.77 1228.5H1254.35L1433 1121.31Z" fill="#F50049"/>
<path d="M1433 1036.48V1057.74L1148.37 1228.5H1112.96L1433 1036.48Z" fill="#F50049"/>
<path d="M1433 951.644V972.908L1006.96 1228.5H971.574L1433 951.644Z" fill="#F50049"/>
<path d="M1433 93.5083V114.772L900.879 -204.5H936.255L1433 93.5083Z" fill="#F50049"/>
<path d="M1433 8.67479V29.9388L1042.27 -204.5H1077.66L1433 8.67479Z" fill="#F50049"/>
<path d="M1433 -76.1588V-54.8948L1183.66 -204.5H1219.07L1433 -76.1588Z" fill="#F50049"/>
<path d="M496.744 -204.5L9.4578 87.832L27.227 98.4362L532.121 -204.5H496.744Z" fill="#F50049"/>
<path d="M638.163 -204.5L80.248 130.249L98.0172 140.853L673.517 -204.5H638.163Z" fill="#F50049"/>
<path d="M759.487 -204.5L1370.38 162.061L1388.15 151.457L794.843 -204.5H759.487Z" fill="#F50049"/>
<path d="M865.543 1228.5L1388.15 914.96L1388.58 151.457L1370.81 162.061L1370.38 904.355L830.176 1228.5H865.543Z" fill="#F50049"/>
<path d="M724.144 1228.5H708.856L80.1047 851.334L80.391 851.164L79.9611 130.249L97.7303 140.853L98.1602 840.587L97.8969 840.744L716.5 1211.88L1299.73 861.939L1300.02 204.478L1317.79 193.874L1317.5 872.543L724.144 1228.5Z" fill="#F50049"/>
<path d="M602.815 1228.5H567.448L9.4578 893.751L9.60071 893.666L9.1712 87.832L26.9404 98.4362L27.3699 883.147L27.2983 883.19L602.815 1228.5Z" fill="#F50049"/>
<path d="M1317.5 193.874L1299.73 204.478L716.5 -145.46L168.664 183.27L150.895 172.666L716.5 -166.669L1317.5 193.874Z" fill="#F50049"/>
<path d="M1229.08 246.895L1246.85 236.291L716.5 -81.8352L221.542 215.082L221.685 766.415L221.542 766.501L716.5 1063.42L1176.06 787.709L1158.29 777.105L716.5 1042.21L239.382 755.939L239.454 755.897L239.311 225.687L716.5 -60.6268L1229.08 246.895Z" fill="#F50049"/>
<path d="M1176.06 278.708L1158.29 289.312L716.5 24.2068L310.101 268.103L310.388 713.48L310.172 713.608L716.5 957.376L1087.65 734.688V331.729L716.5 109.04L380.82 310.477L380.891 310.52V671.063L380.82 671.106L716.5 872.543L1016.95 692.271L1017 374.145L716.5 193.874L451.468 352.895L451.538 352.937V628.646L451.466 628.689L716.5 787.709L946.21 649.855V416.562L716.5 278.708L522.185 395.354L522.328 586.229L522.185 586.315L716.5 702.876L875.563 607.438V458.979L716.5 363.541L592.904 437.728L592.975 437.771V543.813L592.904 543.855L716.5 618.042L804.773 565.021L804.916 501.396L716.5 448.375V448.231V448.46V427.252V427.166L822.685 490.792L822.542 575.625L716.5 639.25L575.063 554.417L575.206 554.331V427.252L575.063 427.166L716.5 342.333L893.332 448.375V618.042L716.5 724.084L504.273 596.834L504.559 596.663L504.416 384.75L716.5 257.499L963.979 405.958V660.459L716.5 808.918L433.626 639.25L433.769 639.165V342.417L433.629 342.333L716.5 172.666L1034.77 363.541L1034.72 702.876L716.5 893.751L362.979 681.667L363.122 681.582V300.001L362.979 299.916L716.5 87.832L1105.42 321.124V745.292L716.5 978.585L292.189 724.084L292.618 723.828L292.332 257.499L716.5 2.9984L1176.06 278.708Z" fill="#F50049"/>
<path d="M151.038 808.832L150.895 808.918L716.5 1148.25L1246.71 830.126L1247 236.291L1229.23 246.895L1228.94 819.522L716.5 1127.04L168.735 798.356L168.807 798.313L168.521 183.27L150.752 172.666L151.038 808.832Z" fill="#F50049"/>
<path d="M1158.44 289.312V777.105L1176.21 787.709V278.708L1158.44 289.312Z" fill="#F50049"/>
<path d="M1433 -182.145V-203.409L1431.18 -204.5H1395.74L1433 -182.145Z" fill="#26ABFF"/>
<path d="M37.258 -204.5H1.81822L0 -203.409V-182.145L37.258 -204.5Z" fill="#26ABFF"/>
<path d="M0 -118.576L143.226 -204.5H178.647L0 -97.3116V-118.576Z" fill="#26ABFF"/>
<path d="M0 -12.478V-33.742L284.633 -204.5H320.037L0 -12.478Z" fill="#26ABFF"/>
<path d="M0 72.3556V51.0916L426.041 -204.5H461.426L0 72.3556Z" fill="#26ABFF"/>
<path d="M0 930.492V909.228L532.121 1228.5H496.745L0 930.492Z" fill="#26ABFF"/>
<path d="M0 1015.33V994.061L390.731 1228.5H355.337L0 1015.33Z" fill="#26ABFF"/>
<path d="M0 1100.16V1078.89L249.342 1228.5H213.93L0 1100.16Z" fill="#26ABFF"/>
<path d="M0 1184.99V1163.73L107.953 1228.5H72.522L0 1184.99Z" fill="#26ABFF"/>
<path d="M1433 1184.99L1360.48 1228.5H1325.05L1433 1163.73V1184.99Z" fill="#26ABFF"/>
<path d="M1433 1078.89V1100.16L1219.07 1228.5H1183.66L1433 1078.89Z" fill="#26ABFF"/>
<path d="M1433 994.061V1015.33L1077.66 1228.5H1042.27L1433 994.061Z" fill="#26ABFF"/>
<path d="M1433 51.0916V72.3556L971.574 -204.5H1006.96L1433 51.0916Z" fill="#26ABFF"/>
<path d="M1433 -33.742V-12.478L1112.96 -204.5H1148.37L1433 -33.742Z" fill="#26ABFF"/>
<path d="M1433 -118.576V-97.3116L1254.35 -204.5H1289.77L1433 -118.576Z" fill="#26ABFF"/>
<path d="M567.457 -204.5L44.8529 109.04L62.6221 119.645L602.824 -204.5H567.457Z" fill="#26ABFF"/>
<path d="M830.185 -204.5H865.552L1423.54 130.249L1405.77 140.853L830.185 -204.5Z" fill="#26ABFF"/>
<path d="M708.856 -204.5H724.144L1352.9 172.666L1335.13 183.27L716.5 -187.877L133.269 162.061L115.5 151.457L708.856 -204.5Z" fill="#26ABFF"/>
<path d="M936.256 1228.5L1423.54 936.168L1423.97 130.249L1406.2 140.853L1405.77 925.564L900.879 1228.5H936.256Z" fill="#26ABFF"/>
<path d="M794.837 1228.5L1352.75 893.751L1334.98 883.147L759.483 1228.5H794.837Z" fill="#26ABFF"/>
<path d="M673.513 1228.5L62.6934 861.981L62.7651 861.939L62.3355 119.645L44.5663 109.04L44.9959 872.457L44.8529 872.543L638.157 1228.5H673.513Z" fill="#26ABFF"/>
<path d="M1282.11 215.082L1264.34 225.687L716.5 -103.044L204.059 204.478L186.29 193.874L716.5 -124.252L1282.11 215.082Z" fill="#26ABFF"/>
<path d="M1193.69 268.103L1211.46 257.499L716.5 -39.4184L256.937 236.291V745.292L716.5 1021L1140.67 766.501L1140.52 766.415L1140.81 299.916L716.5 45.4152L327.584 278.708L327.727 278.793V702.79L327.584 702.876L716.5 936.168L1070.02 724.084V342.333L716.5 130.249L398.279 321.124L398.374 321.181L398.423 660.344L398.231 660.459L716.5 851.334L999.371 681.667L981.602 671.063L716.5 830.126L416.096 649.912L416.192 649.855L416.143 331.729L416.096 331.7L716.5 151.457L1052.25 352.937V713.48L716.5 914.96L345.424 692.314L345.496 692.271V289.312L345.424 289.269L716.5 66.6236L1123.04 310.52L1122.76 755.897L1122.83 755.939L716.5 999.793L274.706 734.688V246.895L716.5 -18.21L1193.69 268.103Z" fill="#26ABFF"/>
<path d="M716.5 215.082L999.374 384.75V681.667L981.605 671.063V395.354L716.5 236.291L486.862 374.102L486.933 374.145V607.438L486.862 607.481L716.5 745.292L910.815 628.646L910.958 437.771L716.5 321.124L557.508 416.519L557.58 416.562V565.021L557.508 565.064L716.5 660.459L840.168 586.229V480.187L716.5 405.958L628.227 458.979L628.37 522.604L628.227 522.69L716.5 575.625V596.834L610.315 533.208L610.601 533.038L610.458 448.375L716.5 384.75L857.937 469.583V596.834L716.5 681.667L539.668 575.625L539.811 575.54V406.043L539.668 405.958L716.5 299.916L928.727 427.166L928.584 639.25L716.5 766.501L469.021 618.042L469.164 617.956V363.627L469.021 363.541L716.5 215.082Z" fill="#26ABFF"/>
<path d="M204.059 777.191L204.202 777.105L203.916 204.478L186.147 193.874L186.433 787.538L186.147 787.709L716.5 1105.84L1211.46 808.918L1211.6 257.499L1193.83 268.103L1193.69 798.313L716.5 1084.63L204.059 777.191Z" fill="#26ABFF"/>
<path d="M133.412 819.522L133.34 819.565L716.5 1169.46L1264.34 840.73L1264.62 225.687L1282.39 215.082L1282.11 851.334L716.5 1190.67L115.5 830.126L115.643 830.041L115.357 151.457L133.126 162.061L133.412 819.522Z" fill="#26ABFF"/>
<path d="M1335.41 183.27L1334.98 883.004L1352.75 893.608L1353.18 172.666L1335.41 183.27Z" fill="#26ABFF"/>
</g>
<defs>
<clipPath id="clip0">
<rect width="1440" height="1024" fill="white"/>
</clipPath>
</defs>
</svg>
