<svg width="29" height="30" viewBox="0 0 29 30" fill="none" xmlns="http://www.w3.org/2000/svg">
<mask id="mask0" mask-type="alpha" maskUnits="userSpaceOnUse" x="0" y="0" width="29" height="30">
<path d="M29 0H0V30L15 19L29 30V0Z" fill="white"/>
</mask>
<g mask="url(#mask0)">
<path d="M0 0V-10H-10V0H0ZM29 0H39V-10H29V0ZM29 30L22.8218 37.8632L39 50.5746V30H29ZM15 19L21.1782 11.1368L15.2085 6.44636L9.08636 10.936L15 19ZM0 30H-10V49.7341L5.91364 38.064L0 30ZM0 10H29V-10H0V10ZM19 0V30H39V0H19ZM35.1782 22.1368L21.1782 11.1368L8.82178 26.8632L22.8218 37.8632L35.1782 22.1368ZM-10 0V30H10V0H-10ZM5.91364 38.064L20.9136 27.0641L9.08636 10.936L-5.91364 21.9359L5.91364 38.064Z" fill="black"/>
</g>
</svg>
