<svg width="5000" height="5000" viewBox="0 0 5000 5000" fill="none" xmlns="http://www.w3.org/2000/svg">
<rect width="5000" height="5000" fill="black"/>
<path d="M2475 2367.04L2254 2500L2475 2632.96V2558.96L2377 2500L2475 2441.04V2367.04Z" fill="white"/>
<path d="M2525 2558.96L2623 2500L2525 2441.04V2367.04L2746 2500L2525 2632.96V2558.96Z" fill="white"/>
<path d="M2285 2333V2407L2500 2277.5V2204L2285 2333Z" fill="#F50049"/>
<path d="M2715 2667V2593L2500 2722.5V2796L2715 2667Z" fill="#26ABFF"/>
<path d="M4746.96 0L5000 151.806V226L4623.33 0H4746.96Z" fill="#F50049"/>
<path d="M0 151.806L253.043 0H376.667L0 226V151.806Z" fill="#F50049"/>
<path d="M0 522V447.806L746.44 0H870L0 522Z" fill="#F50049"/>
<path d="M0 818V743.806L1239.84 0H1363.33L0 818Z" fill="#F50049"/>
<path d="M0 4108.19V4034L1610 5000H1486.54L0 4108.19Z" fill="#F50049"/>
<path d="M0 4404.19V4330L1116.67 5000H993.138L0 4404.19Z" fill="#F50049"/>
<path d="M0 4700.19V4626L623.333 5000H499.741L0 4700.19Z" fill="#F50049"/>
<path d="M0 4996.19V4922L130 5000H6.34411L0 4996.19Z" fill="#F50049"/>
<path d="M5000 4996.19L4993.66 5000H4870L5000 4922V4996.19Z" fill="#F50049"/>
<path d="M5000 4626V4700.19L4500.26 5000H4376.67L5000 4626Z" fill="#F50049"/>
<path d="M5000 4330V4404.19L4006.86 5000H3883.33L5000 4330Z" fill="#F50049"/>
<path d="M5000 4034V4108.19L3513.46 5000H3390L5000 4034Z" fill="#F50049"/>
<path d="M5000 1039.81V1114L3143.33 0H3266.77L5000 1039.81Z" fill="#F50049"/>
<path d="M5000 743.806V818L3636.67 0H3760.16L5000 743.806Z" fill="#F50049"/>
<path d="M5000 447.806V522L4130 0H4253.56L5000 447.806Z" fill="#F50049"/>
<path d="M1733.23 0L33 1020L95 1057L1856.67 0H1733.23Z" fill="#F50049"/>
<path d="M2226.67 0L280 1168L342 1205L2350.02 0H2226.67Z" fill="#F50049"/>
<path d="M2649.99 0L4781.5 1279L4843.5 1242L2773.35 0H2649.99Z" fill="#F50049"/>
<path d="M3020.04 5000L4843.5 3906L4845 1242L4783 1279L4781.5 3869L2896.64 5000H3020.04Z" fill="#F50049"/>
<path d="M2526.67 5000H2473.33L279.5 3684L280.499 3683.4L278.999 1168L340.999 1205L342.499 3646.5L341.58 3647.05L2500 4942L4535 3721L4536 1427L4598 1390L4597 3758L2526.67 5000Z" fill="#F50049"/>
<path d="M2103.33 5000H1979.93L33 3832L33.4986 3831.7L32 1020L94 1057L95.4987 3795L95.2487 3795.15L2103.33 5000Z" fill="#F50049"/>
<path d="M4597 1390L4535 1427L2500 206L588.5 1353L526.5 1316L2500 132L4597 1390Z" fill="#F50049"/>
<path d="M4288.5 1575L4350.5 1538L2500 428L773 1464L773.499 3387.7L773 3388L2500 4424L4103.5 3462L4041.5 3425L2500 4350L835.249 3351.15L835.499 3351L835 1501L2500 502L4288.5 1575Z" fill="#F50049"/>
<path d="M4103.5 1686L4041.5 1723L2500 798L1082 1649L1083 3203L1082.25 3203.45L2500 4054L3795 3277V1871L2500 1094L1328.75 1796.85L1329 1797V3055L1328.75 3055.15L2500 3758L3548.33 3129L3548.5 2019L2500 1390L1575.25 1944.85L1575.5 1945V2907L1575.25 2907.15L2500 3462L3301.5 2981V2167L2500 1686L1822 2093L1822.5 2759L1822 2759.3L2500 3166L3055 2833V2315L2500 1982L2068.75 2240.85L2069 2241V2611L2068.75 2611.15L2500 2870L2808 2685L2808.5 2463L2500 2278V2277.5V2278.3V2204.3V2204L2870.5 2426L2870 2722L2500 2944L2006.5 2648L2007 2647.7V2204.3L2006.5 2204L2500 1908L3117 2278V2870L2500 3240L1759.5 2796L1760.5 2795.4L1760 2056L2500 1612L3363.5 2130V3018L2500 3536L1513 2944L1513.5 2943.7V1908.29L1513.01 1908L2500 1316L3610.5 1982L3610.33 3166L2500 3832L1266.5 3092L1267 3091.7V1760.3L1266.5 1760L2500 1020L3857 1834V3314L2500 4128L1019.5 3240L1021 3239.11L1020 1612L2500 724L4103.5 1686Z" fill="#F50049"/>
<path d="M526.999 3535.7L526.5 3536L2500 4720L4350 3610L4351 1538L4289 1575L4288 3573L2500 4646L588.749 3499.15L588.999 3499L588 1353L526 1316L526.999 3535.7Z" fill="#F50049"/>
<path d="M4042 1723V3425L4104 3462V1686L4042 1723Z" fill="#F50049"/>
<path d="M5000 78V3.80598L4993.66 0H4870L5000 78Z" fill="#26ABFF"/>
<path d="M130 0H6.34411L0 3.80598V78L130 0Z" fill="#26ABFF"/>
<path d="M0 299.806L499.741 0H623.333L0 374V299.806Z" fill="#26ABFF"/>
<path d="M0 670V595.806L993.138 0H1116.67L0 670Z" fill="#26ABFF"/>
<path d="M0 966V891.806L1486.54 0H1610L0 966Z" fill="#26ABFF"/>
<path d="M0 3960.19V3886L1856.67 5000H1733.23L0 3960.19Z" fill="#26ABFF"/>
<path d="M0 4256.19V4182L1363.33 5000H1239.84L0 4256.19Z" fill="#26ABFF"/>
<path d="M0 4552.19V4478L870 5000H746.44L0 4552.19Z" fill="#26ABFF"/>
<path d="M0 4848.19V4774L376.667 5000H253.043L0 4848.19Z" fill="#26ABFF"/>
<path d="M5000 4848.19L4746.96 5000H4623.33L5000 4774V4848.19Z" fill="#26ABFF"/>
<path d="M5000 4478V4552.19L4253.56 5000H4130L5000 4478Z" fill="#26ABFF"/>
<path d="M5000 4182V4256.19L3760.16 5000H3636.67L5000 4182Z" fill="#26ABFF"/>
<path d="M5000 891.806V966L3390 0H3513.46L5000 891.806Z" fill="#26ABFF"/>
<path d="M5000 595.806V670L3883.33 0H4006.86L5000 595.806Z" fill="#26ABFF"/>
<path d="M5000 299.806V374L4376.67 0H4500.26L5000 299.806Z" fill="#26ABFF"/>
<path d="M1979.96 0L156.5 1094L218.5 1131L2103.36 0H1979.96Z" fill="#26ABFF"/>
<path d="M2896.67 0H3020.07L4967 1168L4905 1205L2896.67 0Z" fill="#26ABFF"/>
<path d="M2473.33 0H2526.67L4720.5 1316L4658.5 1353L2500 58L465 1279L403 1242L2473.33 0Z" fill="#26ABFF"/>
<path d="M3266.77 5000L4967 3980L4968.5 1168L4906.5 1205L4905 3943L3143.33 5000H3266.77Z" fill="#26ABFF"/>
<path d="M2773.33 5000L4720 3832L4658 3795L2649.98 5000H2773.33Z" fill="#26ABFF"/>
<path d="M2350.01 5000L218.749 3721.15L218.999 3721L217.5 1131L155.5 1094L156.999 3757.7L156.5 3758L2226.65 5000H2350.01Z" fill="#26ABFF"/>
<path d="M4473.5 1464L4411.5 1501L2500 354L712 1427L650 1390L2500 280L4473.5 1464Z" fill="#26ABFF"/>
<path d="M4165 1649L4227 1612L2500 576L896.5 1538V3314L2500 4276L3980 3388L3979.5 3387.7L3980.5 1760L2500 872L1143 1686L1143.5 1686.3V3165.7L1143 3166L2500 3980L3733.5 3240V1908L2500 1168L1389.67 1834L1390 1834.2L1390.17 3017.6L1389.5 3018L2500 3684L3486.99 3092L3424.99 3055L2500 3610L1451.83 2981.2L1452.17 2981L1452 1871L1451.83 1870.9L2500 1242L3671.5 1945V3203L2500 3906L1205.25 3129.15L1205.5 3129V1723L1205.25 1722.85L2500 946L3918.5 1797L3917.5 3351L3917.75 3351.15L2500 4202L958.5 3277V1575L2500 650L4165 1649Z" fill="#26ABFF"/>
<path d="M2500 1464L3487 2056V3092L3425 3055V2093L2500 1538L1698.75 2018.85L1699 2019V2833L1698.75 2833.15L2500 3314L3178 2907L3178.5 2241L2500 1834L1945.25 2166.85L1945.5 2167V2685L1945.25 2685.15L2500 3018L2931.5 2759V2389L2500 2130L2192 2315L2192.5 2537L2192 2537.3L2500 2722V2796L2129.5 2574L2130.5 2573.4L2130 2278L2500 2056L2993.5 2352V2796L2500 3092L1883 2722L1883.5 2721.7V2130.3L1883 2130L2500 1760L3240.5 2204L3240 2944L2500 3388L1636.5 2870L1637 2869.7V1982.3L1636.5 1982L2500 1464Z" fill="#26ABFF"/>
<path d="M711.998 3425.3L712.499 3425L711.5 1427L649.5 1390L650.499 3461.4L649.5 3462L2500 4572L4227 3536L4227.5 1612L4165.5 1649L4165 3499L2500 4498L711.998 3425.3Z" fill="#26ABFF"/>
<path d="M465.499 3573L465.249 3573.15L2500 4794L4411.5 3647L4412.5 1501L4474.5 1464L4473.5 3684L2500 4868L403 3610L403.499 3609.7L402.501 1242L464.501 1279L465.499 3573Z" fill="#26ABFF"/>
<path d="M4659.5 1353L4658 3794.5L4720 3831.5L4721.5 1316L4659.5 1353Z" fill="#26ABFF"/>
</svg>
